<svg width="292" height="126" viewBox="0 0 292 126" fill="none" xmlns="http://www.w3.org/2000/svg">
<path d="M48.1866 76.5189H30.4601V126H70.522V110.449H48.1866V76.5189Z" fill="black"/>
<path d="M142.58 26.007C145.446 25.5652 148.4 25.3148 151.444 25.3148C154.501 25.3148 157.441 25.5799 160.307 26.007V16.9649H175.197V1.41372H127.69V16.9649H142.58V26.007Z" fill="black"/>
<path d="M52.116 29.6886H51.4069L46.0889 1.41372H27.5795L22.6899 29.6886H21.9809L17.7265 1.41372H0L10.2814 50.8948H31.9077L36.5166 24.0336H37.2257L42.1891 50.8948H63.4609L73.3878 1.41372H56.0158L52.116 29.6886Z" fill="black"/>
<path d="M93.6846 41.7054H108.811C113.228 38.1416 118.31 34.7251 123.982 31.9418L115.666 1.41372H87.6576L73.831 50.8948H91.2029L93.6846 41.7054ZM100.066 16.258H102.902L106.093 29.3352H96.5209L100.066 16.258Z" fill="black"/>
<path d="M275.308 105.928C277.509 103.734 279.562 100.273 279.562 94.8976C279.562 84.2945 271.762 76.5189 258.999 76.5189H231.346V126H249.072V112.569H255.454L262.544 126H280.271L271.053 109.035C272.678 108.255 274.096 107.194 275.308 105.928ZM256.872 99.1388H249.072V90.6564H256.872C259.708 90.6564 261.481 92.4236 261.481 94.8976C261.481 97.3717 259.708 99.1388 256.872 99.1388Z" fill="black"/>
<path d="M274.273 1.41372V18.3787H260.092V1.41372H242.366V50.8948H260.092V33.9299H274.273V50.8948H292V1.41372H274.273Z" fill="black"/>
<path d="M97.8061 76.5189H87.702L73.8753 126H91.2473L93.729 116.811H108.974L111.455 126H129.182L120.718 94.9271C111.071 89.5666 103.316 82.5126 97.8061 76.5189ZM96.5652 104.44L100.111 91.3632H102.947L106.138 104.44H96.5652Z" fill="black"/>
<path d="M217.12 30.3955C216.766 31.7356 216.131 32.8696 215.274 33.9299C213.856 35.6971 211.522 37.4642 207.548 37.4642C201.875 37.4642 197.621 33.223 197.621 26.1543C197.621 19.0856 201.875 14.8443 207.548 14.8443C211.167 14.8443 213.368 16.2581 214.786 17.6718C215.643 18.5259 216.278 19.439 216.766 20.4993H234.492C233.429 16.6851 231.804 13.2833 229.529 10.2496C225.555 5.15428 218.893 0 207.548 0C190.457 0 179.186 11.6634 179.186 26.1543C179.186 28.3338 179.466 30.4397 179.968 32.4572C190.752 37.9797 199.32 45.7258 205.244 52.2055C206.012 52.2496 206.765 52.3086 207.548 52.3086C219.041 52.3086 225.777 46.8597 229.81 41.352C232.144 38.0975 233.783 34.4306 234.847 30.3955H217.12Z" fill="black"/>
<path d="M180.899 95.6339V126H221.67V111.863H198.626V107.268H216.707V95.251H198.626V90.6564H221.67V76.5189H205.096C199.335 82.7777 191.151 90.1998 180.899 95.6339Z" fill="black"/>
<path d="M151.444 103.262C148.415 103.262 145.476 102.997 142.625 102.57V126H160.351V102.555C157.471 102.997 154.516 103.262 151.444 103.262Z" fill="black"/>
<path d="M171.061 61.0267C164.088 61.0267 158.446 55.4011 158.446 48.4502C158.446 45.608 159.406 43.0014 160.986 40.8955C158.047 39.7027 154.826 39.0253 151.444 39.0253C137.454 39.0253 126.095 50.3352 126.095 64.2959C126.095 78.242 137.44 89.5666 151.444 89.5666C165.433 89.5666 176.792 78.2567 176.792 64.2959C176.792 62.7791 176.63 61.3065 176.379 59.8485C174.754 60.5996 172.966 61.0267 171.061 61.0267Z" fill="black"/>
</svg>
